<svg width="89" height="54" viewBox="0 0 89 54" fill="none" xmlns="http://www.w3.org/2000/svg">
<g clip-path="url(#clip0_118_558)">
<g style="mix-blend-mode:multiply">
<path d="M27.0008 20.0007V32.9746H30.5642V25.4462C30.5642 24.8105 30.6562 24.3002 30.8402 23.9155C31.0243 23.5139 31.2417 23.2128 31.4927 23.0121C31.7604 22.7946 32.028 22.6524 32.2957 22.5854C32.5801 22.5018 32.806 22.46 32.9733 22.46C33.5421 22.46 33.9687 22.5603 34.2531 22.7611C34.5542 22.9451 34.7634 23.1961 34.8805 23.5139C35.0143 23.8318 35.0896 24.1831 35.1063 24.5679C35.123 24.936 35.1314 25.3124 35.1314 25.6972V32.9746H38.6948V25.7474C38.6948 25.3458 38.7199 24.9527 38.7701 24.5679C38.837 24.1664 38.9542 23.8151 39.1215 23.5139C39.3055 23.1961 39.5481 22.9451 39.8492 22.7611C40.1671 22.5603 40.5769 22.46 41.0788 22.46C41.5807 22.46 41.9739 22.5436 42.2583 22.7109C42.5594 22.8782 42.7853 23.1041 42.9358 23.3885C43.0864 23.6729 43.1784 24.0075 43.2119 24.3923C43.2453 24.777 43.2621 25.1869 43.2621 25.6219V32.9746H46.8255V24.2919C46.8255 23.4554 46.7084 22.7444 46.4742 22.1588C46.24 21.5566 45.9137 21.0714 45.4955 20.7033C45.0772 20.3353 44.5753 20.0676 43.9898 19.9003C43.4043 19.733 42.7685 19.6494 42.0826 19.6494C41.1792 19.6494 40.3929 19.8669 39.7237 20.3018C39.0713 20.7368 38.5526 21.2387 38.1679 21.8075C37.8165 21.0045 37.2979 20.444 36.612 20.1262C35.9428 19.8083 35.1983 19.6494 34.3786 19.6494C33.5254 19.6494 32.7642 19.8334 32.095 20.2015C31.4425 20.5695 30.8821 21.0881 30.4136 21.7573H30.3634V20.0007H27.0008ZM57.1707 25.2957V20.3018H54.4856V25.2957H49.4918V27.9808H54.4856V32.9746H57.1707V27.9808H62.1646V25.2957H57.1707Z" fill="black" fill-opacity="0.3"/>
</g>
<path d="M27.0008 22.092V35.0659H30.5642V27.5375C30.5642 26.9018 30.6562 26.3915 30.8402 26.0068C31.0243 25.6053 31.2417 25.3041 31.4927 25.1034C31.7604 24.8859 32.028 24.7437 32.2957 24.6768C32.5801 24.5931 32.806 24.5513 32.9733 24.5513C33.5421 24.5513 33.9687 24.6517 34.2531 24.8524C34.5542 25.0364 34.7634 25.2874 34.8805 25.6053C35.0143 25.9231 35.0896 26.2744 35.1063 26.6592C35.123 27.0273 35.1314 27.4037 35.1314 27.7885V35.0659H38.6948V27.8387C38.6948 27.4372 38.7199 27.044 38.7701 26.6592C38.837 26.2577 38.9542 25.9064 39.1215 25.6053C39.3055 25.2874 39.5481 25.0364 39.8492 24.8524C40.1671 24.6517 40.5769 24.5513 41.0788 24.5513C41.5807 24.5513 41.9739 24.6349 42.2583 24.8022C42.5594 24.9695 42.7853 25.1954 42.9358 25.4798C43.0864 25.7642 43.1784 26.0988 43.2119 26.4836C43.2453 26.8683 43.2621 27.2782 43.2621 27.7132V35.0659H46.8255V26.3832C46.8255 25.5467 46.7084 24.8357 46.4742 24.2501C46.24 23.6479 45.9137 23.1627 45.4955 22.7947C45.0772 22.4266 44.5753 22.1589 43.9898 21.9916C43.4043 21.8243 42.7685 21.7407 42.0826 21.7407C41.1792 21.7407 40.3929 21.9582 39.7237 22.3931C39.0713 22.8281 38.5526 23.33 38.1679 23.8988C37.8165 23.0958 37.2979 22.5353 36.612 22.2175C35.9428 21.8996 35.1983 21.7407 34.3786 21.7407C33.5254 21.7407 32.7642 21.9247 32.095 22.2928C31.4425 22.6608 30.8821 23.1794 30.4136 23.8486H30.3634V22.092H27.0008ZM57.1707 27.387V22.3931H54.4856V27.387H49.4918V30.0721H54.4856V35.0659H57.1707V30.0721H62.1646V27.387H57.1707Z" fill="#DDDDDD"/>
<path d="M27.0008 21.0464V34.0203H30.5642V26.4919C30.5642 25.8562 30.6562 25.3459 30.8402 24.9611C31.0243 24.5596 31.2417 24.2585 31.4927 24.0577C31.7604 23.8402 32.028 23.698 32.2957 23.6311C32.5801 23.5474 32.806 23.5056 32.9733 23.5056C33.5421 23.5056 33.9687 23.606 34.2531 23.8068C34.5542 23.9908 34.7634 24.2417 34.8805 24.5596C35.0143 24.8775 35.0896 25.2288 35.1063 25.6136C35.123 25.9816 35.1314 26.358 35.1314 26.7428V34.0203H38.6948V26.793C38.6948 26.3915 38.7199 25.9984 38.7701 25.6136C38.837 25.2121 38.9542 24.8607 39.1215 24.5596C39.3055 24.2417 39.5481 23.9908 39.8492 23.8068C40.1671 23.606 40.5769 23.5056 41.0788 23.5056C41.5807 23.5056 41.9739 23.5893 42.2583 23.7566C42.5594 23.9239 42.7853 24.1497 42.9358 24.4341C43.0864 24.7185 43.1784 25.0531 43.2119 25.4379C43.2453 25.8227 43.2621 26.2326 43.2621 26.6675V34.0203H46.8255V25.3375C46.8255 24.501 46.7084 23.79 46.4742 23.2045C46.24 22.6022 45.9137 22.1171 45.4955 21.749C45.0772 21.3809 44.5753 21.1133 43.9898 20.946C43.4043 20.7787 42.7685 20.695 42.0826 20.695C41.1792 20.695 40.3929 20.9125 39.7237 21.3475C39.0713 21.7825 38.5526 22.2844 38.1679 22.8532C37.8165 22.0501 37.2979 21.4897 36.612 21.1718C35.9428 20.854 35.1983 20.695 34.3786 20.695C33.5254 20.695 32.7642 20.8791 32.095 21.2471C31.4425 21.6152 30.8821 22.1338 30.4136 22.803H30.3634V21.0464H27.0008ZM57.1707 26.3413V21.3475H54.4856V26.3413H49.4918V29.0264H54.4856V34.0203H57.1707V29.0264H62.1646V26.3413H57.1707Z" fill="white"/>
</g>
<defs>
<clipPath id="clip0_118_558">
<rect width="87.2038" height="53.7443" fill="white" transform="translate(0.942383 0.0202637)"/>
</clipPath>
</defs>
</svg>
