<svg width="89" height="55" viewBox="0 0 89 55" fill="none" xmlns="http://www.w3.org/2000/svg">
<g style="mix-blend-mode:multiply">
<path fill-rule="evenodd" clip-rule="evenodd" d="M36.3886 28.0183H32.6244L32.6244 22.2675H26.8735V18.5033H32.6244L32.6244 12.7524H36.3886V18.5033H42.1394V22.2675H36.3886V28.0183ZM52.9829 16.6212L55.6446 19.2829L35.2407 39.6867L32.5791 37.025L52.9829 16.6212ZM62.215 32.5145V36.2787L46.9491 36.2787L46.9491 32.5145H62.215Z" fill="black" fill-opacity="0.3"/>
</g>
<path fill-rule="evenodd" clip-rule="evenodd" d="M36.3886 30.1096H32.6244L32.6244 24.3588H26.8735V20.5946H32.6244L32.6244 14.8438H36.3886V20.5946H42.1394V24.3588H36.3886V30.1096ZM52.9829 18.7124L55.6446 21.3741L35.2407 41.7779L32.5791 39.1163L52.9829 18.7124ZM62.215 34.6057V38.3699H46.9491L46.9491 34.6057H62.215Z" fill="#DDDDDD"/>
<path fill-rule="evenodd" clip-rule="evenodd" d="M36.3886 29.064H32.6244L32.6244 23.3131H26.8735V19.5489H32.6244L32.6244 13.7981H36.3886V19.5489H42.1394V23.3131H36.3886V29.064ZM52.9829 17.6668L55.6446 20.3285L35.2407 40.7323L32.5791 38.0706L52.9829 17.6668ZM62.215 33.5601V37.3243L46.9491 37.3243L46.9491 33.5601H62.215Z" fill="white"/>
</svg>
